<svg width="135" height="46" viewBox="0 0 135 46" fill="none" xmlns="http://www.w3.org/2000/svg">
<circle cx="23" cy="23" r="19" stroke="url(#paint0_linear_1121_9125)" stroke-width="2"/>
<line x1="31" y1="18.5" x2="41" y2="18.5" stroke="black" stroke-width="2" stroke-linecap="round"/>
<line x1="30" y1="24.5" x2="39" y2="24.5" stroke="black" stroke-width="2" stroke-linecap="round"/>
<path d="M4.5 27H6.5C7.12951 27 7.72229 26.7036 8.1 26.2L11.8882 21.1491C11.9623 21.0502 12.0502 20.9623 12.1491 20.8882C12.962 20.2785 14.1291 20.791 14.2302 21.8021L14.25 22L14.5 24.5L14.9532 28.5788C14.9835 28.8515 15.1057 29.1057 15.2997 29.2997C15.7069 29.7069 16.3449 29.7701 16.8241 29.4506L17.0469 29.3021C17.34 29.1067 17.557 28.8164 17.6614 28.4799L21.7926 15.1682C21.9251 14.7413 22.226 14.387 22.6258 14.1871C23.7166 13.6417 25 14.4349 25 15.6545L25 29.0105C25 29.557 25.443 30 25.9895 30L37.5 30" stroke="black" stroke-width="2" stroke-linecap="round"/>
<path d="M53.18 18.3V21.8H57.88V24.02H53.18V27.72H58.48V30H50.38V16.02H58.48V18.3H53.18ZM63.8245 20.52C64.1845 20.0133 64.6779 19.5933 65.3045 19.26C65.9445 18.9133 66.6712 18.74 67.4845 18.74C68.4312 18.74 69.2845 18.9733 70.0445 19.44C70.8179 19.9067 71.4245 20.5733 71.8645 21.44C72.3179 22.2933 72.5445 23.2867 72.5445 24.42C72.5445 25.5533 72.3179 26.56 71.8645 27.44C71.4245 28.3067 70.8179 28.98 70.0445 29.46C69.2845 29.94 68.4312 30.18 67.4845 30.18C66.6712 30.18 65.9512 30.0133 65.3245 29.68C64.7112 29.3467 64.2112 28.9267 63.8245 28.42V35.28H61.0245V18.92H63.8245V20.52ZM69.6845 24.42C69.6845 23.7533 69.5445 23.18 69.2645 22.7C68.9979 22.2067 68.6379 21.8333 68.1845 21.58C67.7445 21.3267 67.2645 21.2 66.7445 21.2C66.2379 21.2 65.7579 21.3333 65.3045 21.6C64.8645 21.8533 64.5045 22.2267 64.2245 22.72C63.9579 23.2133 63.8245 23.7933 63.8245 24.46C63.8245 25.1267 63.9579 25.7067 64.2245 26.2C64.5045 26.6933 64.8645 27.0733 65.3045 27.34C65.7579 27.5933 66.2379 27.72 66.7445 27.72C67.2645 27.72 67.7445 27.5867 68.1845 27.32C68.6379 27.0533 68.9979 26.6733 69.2645 26.18C69.5445 25.6867 69.6845 25.1 69.6845 24.42ZM75.9992 17.6C75.5059 17.6 75.0926 17.4467 74.7592 17.14C74.4392 16.82 74.2792 16.4267 74.2792 15.96C74.2792 15.4933 74.4392 15.1067 74.7592 14.8C75.0926 14.48 75.5059 14.32 75.9992 14.32C76.4926 14.32 76.8992 14.48 77.2192 14.8C77.5526 15.1067 77.7192 15.4933 77.7192 15.96C77.7192 16.4267 77.5526 16.82 77.2192 17.14C76.8992 17.4467 76.4926 17.6 75.9992 17.6ZM77.3792 18.92V30H74.5792V18.92H77.3792ZM79.4256 24.46C79.4256 23.3133 79.659 22.3133 80.1256 21.46C80.5923 20.5933 81.239 19.9267 82.0656 19.46C82.8923 18.98 83.839 18.74 84.9056 18.74C86.279 18.74 87.4123 19.0867 88.3056 19.78C89.2123 20.46 89.819 21.42 90.1256 22.66H87.1056C86.9456 22.18 86.6723 21.8067 86.2856 21.54C85.9123 21.26 85.4456 21.12 84.8856 21.12C84.0856 21.12 83.4523 21.4133 82.9856 22C82.519 22.5733 82.2856 23.3933 82.2856 24.46C82.2856 25.5133 82.519 26.3333 82.9856 26.92C83.4523 27.4933 84.0856 27.78 84.8856 27.78C86.019 27.78 86.759 27.2733 87.1056 26.26H90.1256C89.819 27.46 89.2123 28.4133 88.3056 29.12C87.399 29.8267 86.2656 30.18 84.9056 30.18C83.839 30.18 82.8923 29.9467 82.0656 29.48C81.239 29 80.5923 28.3333 80.1256 27.48C79.659 26.6133 79.4256 25.6067 79.4256 24.46ZM98.7369 30L94.9769 25.28V30H92.1769V15.2H94.9769V23.62L98.6969 18.92H102.337L97.4569 24.48L102.377 30H98.7369ZM108.677 30.14C107.703 30.14 106.823 29.9733 106.037 29.64C105.263 29.3067 104.65 28.8267 104.197 28.2C103.743 27.5733 103.51 26.8333 103.497 25.98H106.497C106.537 26.5533 106.737 27.0067 107.097 27.34C107.47 27.6733 107.977 27.84 108.617 27.84C109.27 27.84 109.783 27.6867 110.157 27.38C110.53 27.06 110.717 26.6467 110.717 26.14C110.717 25.7267 110.59 25.3867 110.337 25.12C110.083 24.8533 109.763 24.6467 109.377 24.5C109.003 24.34 108.483 24.1667 107.817 23.98C106.91 23.7133 106.17 23.4533 105.597 23.2C105.037 22.9333 104.55 22.54 104.137 22.02C103.737 21.4867 103.537 20.78 103.537 19.9C103.537 19.0733 103.743 18.3533 104.157 17.74C104.57 17.1267 105.15 16.66 105.897 16.34C106.643 16.0067 107.497 15.84 108.457 15.84C109.897 15.84 111.063 16.1933 111.957 16.9C112.863 17.5933 113.363 18.5667 113.457 19.82H110.377C110.35 19.34 110.143 18.9467 109.757 18.64C109.383 18.32 108.883 18.16 108.257 18.16C107.71 18.16 107.27 18.3 106.937 18.58C106.617 18.86 106.457 19.2667 106.457 19.8C106.457 20.1733 106.577 20.4867 106.817 20.74C107.07 20.98 107.377 21.18 107.737 21.34C108.11 21.4867 108.63 21.66 109.297 21.86C110.203 22.1267 110.943 22.3933 111.517 22.66C112.09 22.9267 112.583 23.3267 112.997 23.86C113.41 24.3933 113.617 25.0933 113.617 25.96C113.617 26.7067 113.423 27.4 113.037 28.04C112.65 28.68 112.083 29.1933 111.337 29.58C110.59 29.9533 109.703 30.14 108.677 30.14ZM126.344 24.22C126.344 24.62 126.317 24.98 126.264 25.3H118.164C118.231 26.1 118.511 26.7267 119.004 27.18C119.497 27.6333 120.104 27.86 120.824 27.86C121.864 27.86 122.604 27.4133 123.044 26.52H126.064C125.744 27.5867 125.131 28.4667 124.224 29.16C123.317 29.84 122.204 30.18 120.884 30.18C119.817 30.18 118.857 29.9467 118.004 29.48C117.164 29 116.504 28.3267 116.024 27.46C115.557 26.5933 115.324 25.5933 115.324 24.46C115.324 23.3133 115.557 22.3067 116.024 21.44C116.491 20.5733 117.144 19.9067 117.984 19.44C118.824 18.9733 119.791 18.74 120.884 18.74C121.937 18.74 122.877 18.9667 123.704 19.42C124.544 19.8733 125.191 20.52 125.644 21.36C126.111 22.1867 126.344 23.14 126.344 24.22ZM123.444 23.42C123.431 22.7 123.171 22.1267 122.664 21.7C122.157 21.26 121.537 21.04 120.804 21.04C120.111 21.04 119.524 21.2533 119.044 21.68C118.577 22.0933 118.291 22.6733 118.184 23.42H123.444ZM131.648 21.22V26.58C131.648 26.9533 131.734 27.2267 131.908 27.4C132.094 27.56 132.401 27.64 132.828 27.64H134.128V30H132.368C130.008 30 128.828 28.8533 128.828 26.56V21.22H127.508V18.92H128.828V16.18H131.648V18.92H134.128V21.22H131.648Z" fill="black"/>
<path d="M51.5 38H132.5" stroke="#CB30E0" stroke-width="2" stroke-linecap="square"/>
<defs>
<linearGradient id="paint0_linear_1121_9125" x1="23" y1="3" x2="23" y2="43" gradientUnits="userSpaceOnUse">
<stop stop-color="#381574"/>
<stop offset="1"/>
</linearGradient>
</defs>
</svg>
